<svg xmlns="http://www.w3.org/2000/svg" viewBox="0 0 512 512" role="img" aria-label="Carbonautas"><defs><linearGradient id="orbit" x1="80" y1="420" x2="430" y2="80" gradientUnits="userSpaceOnUse"><stop offset="0" stop-color="#005b7a"/><stop offset=".52" stop-color="#118f82"/><stop offset="1" stop-color="#55c784"/></linearGradient><linearGradient id="leafA" x1="160" y1="340" x2="330" y2="145" gradientUnits="userSpaceOnUse"><stop offset="0" stop-color="#005875"/><stop offset=".55" stop-color="#087f7e"/><stop offset="1" stop-color="#20a681"/></linearGradient><linearGradient id="leafB" x1="235" y1="365" x2="335" y2="175" gradientUnits="userSpaceOnUse"><stop offset="0" stop-color="#78d39a"/><stop offset=".48" stop-color="#4ec68e"/><stop offset="1" stop-color="#179c7d"/></linearGradient></defs><g fill="none" stroke="url(#orbit)" stroke-width="22" stroke-linecap="round"><path d="M126 116 A176 176 0 0 1 332 72"/><path d="M393 128 A176 176 0 0 1 414 274"/><path d="M369 367 A176 176 0 0 1 137 392"/><path d="M91 335 A176 176 0 0 1 91 181"/></g><circle cx="102" cy="139" r="25" fill="#05617b"/><circle cx="366" cy="112" r="48" fill="#49c586"/><circle cx="102" cy="366" r="39" fill="#086b80"/><circle cx="405" cy="311" r="22" fill="#6bd092"/><path d="M257 370C201 315 186 260 209 218c25-45 76-62 121-110 5 65 0 133-33 188-15 25-27 46-40 74Z" fill="url(#leafA)"/><path d="M257 370c8-74 26-109 51-144 20-29 27-67 22-118 28 77 28 148 4 200-14 31-39 51-77 62Z" fill="url(#leafB)"/><path d="M244 366c13-62 32-108 60-145 11-15 19-29 27-45-10 37-25 69-45 96-20 28-33 57-42 94Z" fill="#fff"/></svg>